HIERARCHY
ROOT Hips
{
	OFFSET -14.64140 90.27770 -84.91600
	CHANNELS 6 Xposition Yposition Zposition Zrotation Xrotation Yrotation
	JOINT Spine
	{
		OFFSET 0.00000 13.20850 -1.60436
		CHANNELS 3 Zrotation Xrotation Yrotation
		JOINT Spine1
		{
			OFFSET 0.00000 8.61716 0.00000
			CHANNELS 3 Zrotation Xrotation Yrotation
			JOINT Spine2
			{
				OFFSET 0.00000 8.61717 0.00000
				CHANNELS 3 Zrotation Xrotation Yrotation
				JOINT Spine3
				{
					OFFSET 0.00000 8.61717 0.00000
					CHANNELS 3 Zrotation Xrotation Yrotation
					JOINT Neck
					{
						OFFSET 0.00000 11.07920 1.10792
						CHANNELS 3 Zrotation Xrotation Yrotation
						JOINT Neck1
						{
							OFFSET 0.00000 7.08032 0.00000
							CHANNELS 3 Zrotation Xrotation Yrotation
							JOINT Head
							{
								OFFSET 0.00000 7.08031 0.00000
								CHANNELS 3 Zrotation Xrotation Yrotation
								End site
								{
									OFFSET 0.00000 0.00000 0.00000
								}
							}
						}
					}
					JOINT RightShoulder
					{
						OFFSET -0.01000 7.91373 5.19711
						CHANNELS 3 Zrotation Xrotation Yrotation
						JOINT RightArm
						{
							OFFSET -18.41580 0.00000 0.00000
							CHANNELS 3 Zrotation Xrotation Yrotation
							JOINT RightForeArm
							{
								OFFSET -29.11090 0.00000 0.00000
								CHANNELS 3 Zrotation Xrotation Yrotation
								JOINT RightHand
								{
									OFFSET -24.65040 0.00000 0.00000
									CHANNELS 3 Zrotation Xrotation Yrotation
									JOINT RightHandThumb1
									{
										OFFSET -5.35114 -0.85590 3.97906
										CHANNELS 3 Zrotation Xrotation Yrotation
										JOINT RightHandThumb2
										{
											OFFSET -4.52789 0.00000 0.00000
											CHANNELS 3 Zrotation Xrotation Yrotation
											JOINT RightHandThumb3
											{
												OFFSET -2.46976 0.00000 0.00000
												CHANNELS 3 Zrotation Xrotation Yrotation
												End site
												{
													OFFSET 0.00000 0.00000 0.00000
												}
											}
										}
									}
									JOINT RightHandIndex1
									{
										OFFSET -14.26970 0.00000 2.88139
										CHANNELS 3 Zrotation Xrotation Yrotation
										JOINT RightHandIndex2
										{
											OFFSET -5.48836 0.00000 0.00000
											CHANNELS 3 Zrotation Xrotation Yrotation
											JOINT RightHandIndex3
											{
												OFFSET -3.01859 0.00000 0.00000
												CHANNELS 3 Zrotation Xrotation Yrotation
												End site
												{
													OFFSET 0.00000 0.00000 0.00000
												}
											}
										}
									}
									JOINT RightHandMiddle1
									{
										OFFSET -14.26970 0.00000 -0.09147
										CHANNELS 3 Zrotation Xrotation Yrotation
										JOINT RightHandMiddle2
										{
											OFFSET -6.17441 0.00000 0.00000
											CHANNELS 3 Zrotation Xrotation Yrotation
											JOINT RightHandMiddle3
											{
												OFFSET -3.56743 0.00000 0.00000
												CHANNELS 3 Zrotation Xrotation Yrotation
												End site
												{
													OFFSET 0.00000 0.00000 0.00000
												}
											}
										}
									}
									JOINT RightHandRing1
									{
										OFFSET -12.69180 0.00000 -3.06433
										CHANNELS 3 Zrotation Xrotation Yrotation
										JOINT RightHandRing2
										{
											OFFSET -5.62556 0.00000 0.00000
											CHANNELS 3 Zrotation Xrotation Yrotation
											JOINT RightHandRing3
											{
												OFFSET -3.56744 0.00000 0.00000
												CHANNELS 3 Zrotation Xrotation Yrotation
												End site
												{
													OFFSET 0.00000 0.00000 0.00000
												}
											}
										}
									}
									JOINT RightHandPinky1
									{
										OFFSET -11.11390 0.00000 -6.03719
										CHANNELS 3 Zrotation Xrotation Yrotation
										JOINT RightHandPinky2
										{
											OFFSET -4.52789 0.00000 0.00000
											CHANNELS 3 Zrotation Xrotation Yrotation
											JOINT RightHandPinky3
											{
												OFFSET -2.46976 0.00000 0.00000
												CHANNELS 3 Zrotation Xrotation Yrotation
												End site
												{
													OFFSET 0.00000 0.00000 0.00000
												}
											}
										}
									}
								}
							}
						}
					}
					JOINT LeftShoulder
					{
						OFFSET 0.01000 7.91373 5.19711
						CHANNELS 3 Zrotation Xrotation Yrotation
						JOINT LeftArm
						{
							OFFSET 18.41580 0.00000 0.00000
							CHANNELS 3 Zrotation Xrotation Yrotation
							JOINT LeftForeArm
							{
								OFFSET 29.11090 0.00000 0.00000
								CHANNELS 3 Zrotation Xrotation Yrotation
								JOINT LeftHand
								{
									OFFSET 24.65040 0.00000 0.00000
									CHANNELS 3 Zrotation Xrotation Yrotation
									JOINT LeftHandThumb1
									{
										OFFSET 5.35114 -0.85590 3.97906
										CHANNELS 3 Zrotation Xrotation Yrotation
										JOINT LeftHandThumb2
										{
											OFFSET 4.52789 0.00000 0.00000
											CHANNELS 3 Zrotation Xrotation Yrotation
											JOINT LeftHandThumb3
											{
												OFFSET 2.46977 0.00000 0.00000
												CHANNELS 3 Zrotation Xrotation Yrotation
												End site
												{
													OFFSET 0.00000 0.00000 0.00000
												}
											}
										}
									}
									JOINT LeftHandIndex1
									{
										OFFSET 14.26970 0.00000 2.88139
										CHANNELS 3 Zrotation Xrotation Yrotation
										JOINT LeftHandIndex2
										{
											OFFSET 5.48836 0.00000 0.00000
											CHANNELS 3 Zrotation Xrotation Yrotation
											JOINT LeftHandIndex3
											{
												OFFSET 3.01859 0.00000 0.00000
												CHANNELS 3 Zrotation Xrotation Yrotation
												End site
												{
													OFFSET 0.00000 0.00000 0.00000
												}
											}
										}
									}
									JOINT LeftHandMiddle1
									{
										OFFSET 14.26970 0.00000 -0.09147
										CHANNELS 3 Zrotation Xrotation Yrotation
										JOINT LeftHandMiddle2
										{
											OFFSET 6.17440 0.00000 0.00000
											CHANNELS 3 Zrotation Xrotation Yrotation
											JOINT LeftHandMiddle3
											{
												OFFSET 3.56744 0.00000 0.00000
												CHANNELS 3 Zrotation Xrotation Yrotation
												End site
												{
													OFFSET 0.00000 0.00000 0.00000
												}
											}
										}
									}
									JOINT LeftHandRing1
									{
										OFFSET 12.69180 0.00000 -3.06433
										CHANNELS 3 Zrotation Xrotation Yrotation
										JOINT LeftHandRing2
										{
											OFFSET 5.62556 0.00000 0.00000
											CHANNELS 3 Zrotation Xrotation Yrotation
											JOINT LeftHandRing3
											{
												OFFSET 3.56744 0.00000 0.00000
												CHANNELS 3 Zrotation Xrotation Yrotation
												End site
												{
													OFFSET 0.00000 0.00000 0.00000
												}
											}
										}
									}
									JOINT LeftHandPinky1
									{
										OFFSET 11.11390 0.00000 -6.03719
										CHANNELS 3 Zrotation Xrotation Yrotation
										JOINT LeftHandPinky2
										{
											OFFSET 4.52789 0.00000 0.00000
											CHANNELS 3 Zrotation Xrotation Yrotation
											JOINT LeftHandPinky3
											{
												OFFSET 2.46976 0.00000 0.00000
												CHANNELS 3 Zrotation Xrotation Yrotation
												End site
												{
													OFFSET 0.00000 0.00000 0.00000
												}
											}
										}
									}
								}
							}
						}
					}
					JOINT pCube4
					{
						OFFSET 0.00000 10.91090 1.10792
						CHANNELS 3 Zrotation Xrotation Yrotation
						End site
						{
							OFFSET 0.00000 0.00000 0.00000
						}
					}
				}
			}
		}
	}
	JOINT RightUpLeg
	{
		OFFSET -9.98441 0.00000 0.00000
		CHANNELS 3 Zrotation Xrotation Yrotation
		JOINT RightLeg
		{
			OFFSET 0.00000 -42.11790 0.00000
			CHANNELS 3 Zrotation Xrotation Yrotation
			JOINT RightFoot
			{
				OFFSET 0.00000 -45.00020 -0.00001
				CHANNELS 3 Zrotation Xrotation Yrotation
				JOINT RightForeFoot
				{
					OFFSET 0.00000 -3.74820 0.00000
					CHANNELS 3 Zrotation Xrotation Yrotation
					JOINT RightToeBase
					{
						OFFSET 0.00000 0.06325 14.43120
						CHANNELS 3 Zrotation Xrotation Yrotation
						End site
						{
							OFFSET 0.00000 0.00000 0.00000
						}
					}
				}
			}
		}
	}
	JOINT LeftUpLeg
	{
		OFFSET 9.98441 0.00000 0.00000
		CHANNELS 3 Zrotation Xrotation Yrotation
		JOINT LeftLeg
		{
			OFFSET 0.00000 -42.11800 0.00000
			CHANNELS 3 Zrotation Xrotation Yrotation
			JOINT LeftFoot
			{
				OFFSET 0.00000 -45.00070 0.00000
				CHANNELS 3 Zrotation Xrotation Yrotation
				JOINT LeftForeFoot
				{
					OFFSET 0.00000 -3.74824 0.00000
					CHANNELS 3 Zrotation Xrotation Yrotation
					JOINT LeftToeBase
					{
						OFFSET 0.00000 0.06325 14.43110
						CHANNELS 3 Zrotation Xrotation Yrotation
						End site
						{
							OFFSET 0.00000 0.00000 0.00000
						}
					}
				}
			}
		}
	}
}
MOTION
Frames: 4
Frame Time: 0.050000
0.045944452082071575 0.029399904085532075 -0.040414615573857414 -0.021860896074929654 -0.03960795876008993 -0.039911814027635856 -2.9837907444367944 0.5607021200572254 -0.6407213182388929 -0.9998444268200541 3.7503139228854594 0.3767466424118058 -1.3702110180707971 -2.147851611197186 0.05638295992095225 0.09742704058119239 0.29673996238066447 -0.6918843726636765 0.8384332331303778 14.08665718504562 -1.558887870898931 0.20342040210019074 0.31295606095813633 -6.3900355401967674 0.9175654361286353 -14.494836627222968 -0.5200477944729497 -7.396936630903229 2.4179391759448547 -13.199155498446567 75.05988648057088 10.486353844528741 31.580910474308947 26.819507185450718 5.713866542934955 76.82786443160552 18.119455248106902 -0.30682114392375176 -1.505660309297605 4.507199802138223 -0.08201166543108893 -1.5618921282771352 0.042909631337565673 -0.016515571691163508 -56.244248850462675 -0.03314712701336232 0.009253922293995133 -56.24653825123101 -38.81784408269864 -0.0064570671007625115 -0.016655478086798285 0.009648256140691723 -0.036775153609558416 -0.02146421567113114 -0.0037481743938244487 0.02149705433627212 -0.030119618969353813 -36.658361148130474 0.04472335084390353 0.02300001110893299 0.01460630541454182 0.045505915216379984 -0.019748052337424514 -0.00833079866178991 0.015931843177938245 -0.04254195550354606 -19.773537575386822 0.006739465836978386 0.019691077620147945 0.01827557683916765 -0.04933021271388301 0.02689752097719573 -0.02427094892315704 -0.034792134478902996 -0.013083069783280511 24.066929965857717 -0.04959500781688728 -0.0005273421547954168 28.82886175221202 -0.044138387516694993 0.016592121195187017 28.883926685244333 -0.004247406050686549 -0.01858730002217878 5.806858856599097 1.3671099023867448 11.986553354788843 -67.82737005383295 24.744610602396218 -12.635879468173671 -15.115641412210678 -1.0882956001721786 -69.693390274905 -8.850128985723842 3.8492826932802897 -1.7830300382178552 -0.4912708544535028 0.0816697220098195 -8.133769746673458 -0.04175876475101396 -0.01591212165232398 44.556097379916636 -0.04719933666825378 0.012661612044323069 44.54748933770586 12.433728340316378 0.043780399132949746 0.02832963097482512 -0.042200759919913976 -0.015456980409170014 -0.008121729718490865 -0.023751351579844735 -0.008360524039596529 0.014487075878488872 11.067209741821248 0.0012107865832978741 -0.021511326040845213 0.019616774125346015 0.01696004664182934 0.023398006399130245 -0.006867155123692644 0.0014298927856411384 0.00919803206154914 4.763183582170354 -0.0014600779751846352 -0.0033730864308451963 -0.01542605718572461 -0.005882604382003449 0.03260524561628712 0.045477368182041046 0.012932906438053789 0.03785879609823554 -5.634693081844475 0.040276874246253695 0.002710770394461332 -6.699710268793129 0.016197238096118824 -0.022916832772200406 -6.749253042779134 0.04217870787716289 -0.0012814546143336306 0.016774013824766735 -0.004475880388375984 0.03501858138253875 8.04339824467892 3.5214033248458416 -19.260748849519224 0.013138153897640894 10.415051003533607 -0.029910286263159013 -5.6469030012906085 -15.666239628068398 3.2028974824048935 0.02268913465554907 0.0035231377914951467 0.0019608050851441265 -0.008750130353049125 4.719102363374841 0.03775803955385858 12.473248664219955 -8.210643761227088 6.905627279213911 0.03472585118859589 46.396446464315375 -0.04307992810643672 -4.350222335203143 -14.707376237991268 -3.7936769702077737 0.0008968657876718528 9.155400385394808e-05 0.028360532146043605 0.028996280250394437 -10.73853881938348 0.01743328990303569 
-0.0023691810523424044 0.021990283257721732 -0.022965120789704415 0.01789930030080394 0.027335167799133298 -0.046993126586603456 -2.9569058282138405 0.4092787895597294 -0.7152530044014613 -0.9401369297283118 3.725884826815443 0.35537372071821643 -1.383104650179143 -2.2157086461366213 0.013280500417473057 0.15483142238993342 0.27055555729304404 -0.6980111886247753 0.782529795978472 14.031469146506359 -1.8228781849079878 0.18313328521206731 0.3373717392754924 -6.917501268240701 0.9197399197621045 -14.545932711148975 -0.5449339460623849 -7.406864402362835 2.388105358670326 -13.216682070823103 74.548751117315 9.26141712928592 31.275521020943845 32.15986689063823 5.8401159675926415 78.6930965833583 19.05141623281707 -0.3290847894356167 -1.765042341082486 4.545915151407947 -0.10657339921635259 -1.5748794257017296 -0.0312365344123943 0.04915995552991259 -56.22032201841362 0.01667376641332477 -0.04862856661776738 -56.20132225598682 -38.78755402421973 0.012672041506897476 -0.017563759904435764 -0.012674788509414154 -0.045672276951793996 0.04356541818856146 0.02763719345724177 0.021039183230012304 -0.0012563910767412747 -36.70800925667873 0.029837957716127208 0.03103845020121578 0.01044659477093327 -0.015287213802038733 0.007176764179009274 0.0017419391007496249 0.00719914876203917 -0.010649032519432059 -19.75586577396606 0.03284708642498698 -0.02763954360866082 0.025476704768061718 0.026433849279254035 -0.0030590621395256415 0.03089393682174668 0.027912181129664617 0.005881474255827804 24.07141129956875 0.009509732576427704 -0.0401611679401175 28.858369233399262 -0.022043560762038828 -0.03715916528892225 28.84967126760538 -0.02281419137456836 0.008528333963912189 6.075211828124527 1.4802102256957377 12.037367086015868 -67.47408936951888 22.992432132827606 -13.94931186042819 -20.903864507566613 2.408243156778821 -74.25047880433158 -9.324686476598123 3.882744760587405 -2.0305448051496406 -0.44483324184634854 0.055427377445652494 -8.10871619195592 0.011322883370910948 -0.010710181426485653 44.537673223617205 -0.0428186685516063 0.006616076281284869 44.53017653094433 12.46767960757527 0.031191252552253978 -0.01989342305470448 0.001362421725451642 0.025965883357570503 0.02091253906577433 -0.0021029494547564914 0.0017208831203792223 0.03210055693088539 11.108494903910936 -0.04874711099219467 -0.008363493344795383 -0.04697319003729282 -0.02170165118634401 -0.021423948721025876 -0.01636618123535244 -0.031075814854882356 -0.014903181580824432 4.789575513068943 -0.0063972278329867535 0.003083553574774373 -0.02219176598826693 0.025576573381295695 0.03914407261563285 -0.04152471903476306 -0.01074084719441998 -0.0156895669715691 -5.631575796100541 -0.03831396473575015 0.0242072086797081 -6.732100390373933 0.00016889927587604295 0.02435358067294556 -6.7080185754241795 -0.030833387112656995 -0.040513922657502505 -0.024375345450162865 0.04257333152888727 -0.0316145082481186 8.083839942566307 3.487448549432505 -19.194138172614235 0.02164291770916873 10.406344170157293 0.0004341831555065949 -5.664168749823578 -15.647909323158805 3.1744362105104296 -0.017495246170966067 -0.04994814702919923 0.04035366536254382 0.047125921732211584 4.692867096101498 0.048477490249784864 12.467903668712205 -8.234436353757436 6.8693098766864935 -0.014277090553642022 46.36630080099379 -0.02935379261264967 -4.312437503280718 -14.751030494577423 -3.852818740054564 0.0042785653147645875 0.014323624138427136 -0.027525012911700373 -0.03727340345343287 -10.775596347017265 -0.021651015238670343 
0.028300151737027487 -0.0006954025657688856 -0.029643209028672287 0.024080305662787807 -0.001486488297271421 0.024918619366634157 -2.8269984081670683 0.2979454797397514 -0.7188095146201295 -0.8894813990796429 3.7409241980751617 0.3658346118718155 -1.3626963873446944 -2.247865953916665 -0.09101054366884093 0.15108736265153921 0.17208385571395093 -0.7126722824392778 0.7605140665540828 14.143759009199076 -1.99812118802508 0.2068272721088023 0.3638690856951611 -7.264929169560611 0.9768276321681304 -14.485809229977248 -0.603952211853849 -7.52179462742488 2.4724367872627115 -13.226908907927726 73.98718568030127 6.789009944753361 31.645314316462034 39.34876683397548 5.5019663127795875 82.7293205618895 19.775708046459393 -0.3586658982494846 -1.9895333066078347 4.531807036706057 -0.10987178635180708 -1.6416176224077885 -0.023960152331610928 0.031095949026823857 -56.20858583320416 0.003910528144750011 0.010434223699229278 -56.21762580414033 -38.720784040045935 0.031264142355430354 -0.000525602444288358 -0.0022477933096948237 0.019722607432332454 0.03564838603874962 -0.0014661925557222007 -0.020879987152092373 -0.021497389093950145 -36.645546588400094 -0.004324635697819798 0.04057463591538811 -0.01923308965438698 0.03531920605657557 0.029784347147015944 0.030249831131215005 -0.030538839406147572 0.01699439729570452 -19.738333877502136 -0.047439429379207136 0.02429735593767548 0.03277984814945221 -0.030532131705622516 -0.01107420747505187 0.025423005308035374 0.04651905312486984 -0.036858234177793006 24.03368741743137 0.03898914544280697 0.047999095050865484 28.87146890667668 0.04679040705917613 -0.023510085456152647 28.85424902800726 -0.03076804653343426 -0.012283659056290442 6.493117185507159 1.4967431365580226 11.972066694187454 -67.24514371551054 21.129159592798896 -15.250470134602104 -29.077863237589483 6.0950194703994836 -81.0783582000346 -10.011849926816339 3.948905378368559 -2.3523630706681518 -0.5028221518984135 0.07021498640256577 -8.107526735221958 -0.039605393840911246 0.008122244524300421 44.5759881732093 -0.02180836074417727 -0.013060435234789378 44.549692843650746 12.465756879670918 0.034000837679657926 0.004059697948020432 -0.04734018498886472 -0.021636599556061037 -0.026230128367477443 -0.02464529283602039 0.002738208331809243 0.009673941124671279 11.145227576317923 -0.0008284892054048143 0.03327223379742979 -0.023346071786077494 0.031944276451973834 0.012588365606938087 0.04667439986829594 -0.02894530739451633 -0.03898885135600359 4.7898691117723615 -0.008616538962188017 0.042214371013467866 0.027750406666476463 0.04996546619580933 -0.03454791771265465 -0.0008519611232095315 -0.03267515574903104 0.03892323324231143 -5.640660139814224 -0.006559999610889008 0.017558690307158644 -6.765596643275268 0.00026720742226918527 -0.014011949848498012 -6.732500138024511 -0.0278889221932516 -0.040813723688061174 0.01589685648046719 0.03807066014498464 -0.03494419395675994 8.017021843445887 3.5325490587299466 -19.178945367352874 0.0035052844379218962 10.413679287228696 -0.0254557307617292 -5.651429376648539 -15.701841840760407 3.2049391456481398 0.03058260054535813 0.02057972902774512 0.00967965345689375 -0.00899874436730927 4.711694250125278 0.045836597253849067 12.503808086006842 -8.246313033266413 6.931258141265324 -0.0203833628114871 46.40772195184418 -0.03511939243576923 -4.3171433512262585 -14.778251785136096 -3.820706604147626 -0.01518633104140486 -0.02642823525436971 0.01831491656933432 -0.008367830216379515 -10.727629551427325 0.01850766086310295 
-0.01807528675288168 -0.042321418739219574 -0.0004665006359379837 0.03252840783299459 -0.019504163884520035 -0.04088813394408149 -2.733904489501838 0.0355778764915531 -0.7354810395832274 -0.8504030035742207 3.7351537794621184 0.3667930246340254 -1.3623633668706148 -2.277209220865234 -0.19233395476105403 0.17635356922145326 0.06900413001908534 -0.6873461268658416 0.8318751608269033 14.183117047145636 -2.164247455080578 0.2546205203902193 0.4195537075800477 -7.361322754756071 0.9757169891591658 -14.3836105621833 -0.5524271191258098 -7.778945757672985 2.5122974182508164 -13.309114954848258 73.13587338972836 3.3282326990501767 32.44469622890672 46.50488977990596 4.324635668548431 87.33455353104733 20.268337850966265 -0.4029466013696365 -2.131641066979433 4.5459015328762895 -0.16568094030453234 -1.6299189506383964 -0.008399631959870481 -0.0030940037571239847 -56.284004027045 -0.025324344379866925 -0.010423626839205394 -56.19157807389532 -38.751666069522535 0.04217917792072356 0.020873948735847102 -0.012512579062883531 0.0002197078916501691 0.045824115832088376 -0.034137475537411206 -0.038491977963054945 0.014739844067691833 -36.67139068678625 -0.049871972867968524 0.008307991886213917 0.0433792606552702 -0.012486137178093252 0.009084349839138094 0.024841051747319286 0.01731681323211616 -0.02949182602255358 -19.763100872784026 -0.0023852881732170502 -0.010933370369333591 0.03868309990909788 -0.0057120359592098945 0.02887209940484389 -0.02283996368031544 -0.024178799452686868 -0.02713245751220227 24.0830463448918 0.02626593543334735 0.017264747674805854 28.831041204861247 -0.009934997236396423 0.009195512316437579 28.824046616990707 -0.03985655806937059 -0.02948317967968778 6.7831731888713085 1.6189101496278255 11.896928781413077 -67.02952698892564 19.705636324176375 -16.423832667991693 -37.821661963895984 8.49408387156515 -88.59827318925835 -10.552516790985843 3.8721510677314184 -2.600887036624938 -0.45644725540987763 0.02750771366179311 -8.120880275055868 -0.01793440449505178 -0.023902474885165437 44.570574352088926 0.005254191046970339 0.029713879154145036 44.53917352206028 12.449867081235686 -0.0033006318746263796 0.018682059379642044 -0.027762317632959447 0.02945909707683763 0.013512161444654827 -0.012971962389006877 0.015906550568935498 2.353825566055312e-05 11.14574870989925 -0.031040204554178257 -0.038969275933190536 -0.030002438299806797 -0.04963972594938673 0.02685878935618122 -0.0003754864060348891 0.03691774553018037 -0.007350040486553895 4.780099040162319 0.0341196371421463 0.025281852162325875 -0.044836119284866145 0.004334629099945274 -0.04675928196549533 -0.04915692265095056 0.0018819741022344555 0.037286494784412615 -5.636205894439154 0.018391639977324185 0.04187198896911935 -6.7605413459989325 -0.003929097835623998 -0.02096951582514506 -6.689751101606676 -0.010465671754596244 -0.026741855869000283 -0.03463281800199737 0.04350960459276938 -0.030397959449696685 8.007685769479298 3.472103141814318 -19.242154792087636 0.004968273757356775 10.407975289442856 0.05034179394104023 -5.5926033369972705 -15.67304565515905 3.1538586809907425 -0.024141183910547565 -0.01976882534708813 0.005244868290392772 0.00609883381922156 4.696907630434551 0.0199192757164974 12.422003700128636 -8.270834204759673 6.871765021668244 0.00023911338382503306 46.34778225142907 0.02699975187492714 -4.298515962130047 -14.783530511166285 -3.8243901499928477 -0.03388995750902753 0.047111085458781086 0.030518763892166685 0.029155753064406754 -10.79082547737127 -0.043801532283509845 
